<svg id="Layer_1" data-name="Layer 1" xmlns="http://www.w3.org/2000/svg" viewBox="0 0 596.62 288.1"><defs><style>.cls-1{fill:#444;}.cls-2{fill:#c5916e;}.cls-3{fill:#eb98b3;}.cls-4{fill:#eec7d4;}.cls-5{fill:#f5b0c8;}</style></defs><g id="tekst"><path class="cls-1" d="M298.1,251.6l-65.7,41.6a5.38,5.38,0,0,1-2.8.8H82.3a5.38,5.38,0,0,1-2.8-.8L13.7,251.6a5.21,5.21,0,0,1,2.8-9.6H295.3C300.5,241.9,302.5,248.8,298.1,251.6Z" transform="translate(-11.28 -5.9)"/><path d="M135.9,229.9h0Z" transform="translate(-11.28 -5.9)"/><path class="cls-2" d="M208,174.9c-2.1,4.5-2.7,4.8-8.7,15.2-5.9,10.2-8.9,15.3-9.6,18.2-1.2,4.6-2,12.7,4.3,24.7H99.1a83.21,83.21,0,0,1,14.6-23.2c3.9-4.4,6.8-6.5,32.5-27.6,8.2-6.8,13.3-11.1,14.6-18.3,1.2-6.3-1-11.7-2.3-15-.7-1.7-5.2-12.5-16.4-18.7-.2-.1-.5-.3-.7-.4l5-8.6c1.5.4,2.8,1.2,7.7,4.8,9.5,6.9,11.6,8.9,16.2,10.7,6.1,2.4,8.9,1.3,10,.8a8.24,8.24,0,0,0,3.9-4.1c1.2-2.9.1-5.7-1.2-9a24.55,24.55,0,0,0-3.1-5.9c-3.5-5-7.1-6.9-9-8.5h13.6c.7,1,1.4,2.1,2.2,3.4,4,6.2,4.7,7.7,7.2,9.9,2,1.8,4.8,4.2,8.1,3.8,2.5-.2,3.5-1.8,5-1.1,1.2.6,1.5,2.1,2.1,6,.7,4.5,1.1,6.8,1.2,8,.5,7.8,2.8,9.2,3.3,14.9C214.3,161.3,212,166.3,208,174.9Z" transform="translate(-11.28 -5.9)"/><path class="cls-3" d="M332.1,118.7H208.8a16.88,16.88,0,0,1-16.9-16.9V88.7a16.88,16.88,0,0,1,16.9-16.9H332.1A16.88,16.88,0,0,1,349,88.7v13.2A16.92,16.92,0,0,1,332.1,118.7Z" transform="translate(-11.28 -5.9)"/><path class="cls-4" d="M139.9,100.7v6.6a40.47,40.47,0,0,1-.5,6,39.75,39.75,0,0,1-39.3,33.8H66.4a39.73,39.73,0,0,1-39.7-39.7v-6.6A39.7,39.7,0,0,1,66.4,61.1h33.8A39.39,39.39,0,0,1,139.9,100.7Z" transform="translate(-11.28 -5.9)"/><path class="cls-5" d="M209.9,50.6v6.6a49.13,49.13,0,0,1-.5,6.7h-.9a24.58,24.58,0,0,0-24.6,24.6v9.3a44.87,44.87,0,0,1-18.7,4.1H148.9v-4a44.47,44.47,0,0,0-44.5-44.5H66.5A43.15,43.15,0,0,0,55,54.9V50.6A44.68,44.68,0,0,1,99.7,5.9h65.6A44.73,44.73,0,0,1,209.9,50.6Z" transform="translate(-11.28 -5.9)"/><polygon points="596.62 165 596.62 174 424.62 174 424.62 165 457.62 165 457.62 78 467.62 78 467.62 126 497.62 126 497.62 135 467.62 135 467.62 165 596.62 165"/><path d="M542.9,83.9v34h51v-34Zm43,25h-34v-16h34Z" transform="translate(-11.28 -5.9)"/><path d="M530.9,124.9v39h8v-6h16v6h8v-39Zm24,25h-16v-18h16Z" transform="translate(-11.28 -5.9)"/><path d="M571.9,124.9v39h8v-6h18v6h9v-39Zm26,25h-18v-18h18Z" transform="translate(-11.28 -5.9)"/><path d="M436.9,232.6V199.4H448a24.83,24.83,0,0,1,8,1.1,12.79,12.79,0,0,1,5.3,3.7c2.4,2.8,3.5,6.5,3.5,11,0,5.1-1.4,9.3-4.1,12.5a12.74,12.74,0,0,1-5.2,3.8,19.91,19.91,0,0,1-7.4,1.1Zm4.7-3.6h6c4.3,0,7.4-1.2,9.2-3.5,1.9-2.5,2.9-5.8,2.9-10,0-3.9-1-7-2.9-9.2a8.66,8.66,0,0,0-4.1-2.8,25.45,25.45,0,0,0-7.2-.8h-3.9Z" transform="translate(-11.28 -5.9)"/><path d="M489.4,231.8a26.81,26.81,0,0,1-7.6,1.3,11.61,11.61,0,0,1-8.8-3.6,12.85,12.85,0,0,1-3.4-9.3,13.67,13.67,0,0,1,3-9.1,9.53,9.53,0,0,1,7.7-3.5,8,8,0,0,1,6.8,3.2q2.4,3.15,2.4,9v1.3H474.1c.6,5.8,3.5,8.7,8.5,8.7a20.52,20.52,0,0,0,6.8-1.5Zm-15.1-14H485c0-4.5-1.7-6.8-5.1-6.8S474.7,213.2,474.3,217.8Z" transform="translate(-11.28 -5.9)"/><path d="M496.2,231.7v-4.1a18.2,18.2,0,0,0,7.5,2.2,4.9,4.9,0,0,0,3.2-1,3,3,0,0,0,1.3-2.6c0-1.5-1.2-2.8-3.5-3.8l-2.6-1.1q-5.7-2.4-5.7-6.9a6.13,6.13,0,0,1,2.3-5,9.73,9.73,0,0,1,6.2-1.8,27.6,27.6,0,0,1,5.1.6l.9.2v3.7A23.42,23.42,0,0,0,505,211a5.69,5.69,0,0,0-3.1.8,2.68,2.68,0,0,0-1.2,2.3c0,1.3,1.1,2.5,3.2,3.4l2.1.9a14.45,14.45,0,0,1,5.1,3.2,6,6,0,0,1,1.5,4.2,6.58,6.58,0,0,1-2.5,5.3,10,10,0,0,1-6.5,2.1A31.18,31.18,0,0,1,496.2,231.7Z" transform="translate(-11.28 -5.9)"/><path d="M520.6,203.7v-4.4H525v4.4Zm0,28.9V208.2H525v24.4Z" transform="translate(-11.28 -5.9)"/><path d="M534,240.7l.5-3.8a18,18,0,0,0,7.6,1.8c5,0,7.5-2.6,7.5-7.9V227a9.43,9.43,0,0,1-3.3,3.8,9.21,9.21,0,0,1-11.7-1.9,13.36,13.36,0,0,1-2.6-8.6,14.17,14.17,0,0,1,2.9-9.1,9.2,9.2,0,0,1,7.6-3.5,9,9,0,0,1,7,3.3v-2.8h4.4v17.7a44.31,44.31,0,0,1-.6,8.5,9.53,9.53,0,0,1-2.2,4.5c-1.9,2.1-4.9,3.1-9.1,3.1A27.33,27.33,0,0,1,534,240.7Zm15.5-16.6V214a8.93,8.93,0,0,0-6.4-3,5.7,5.7,0,0,0-4.8,2.4c-1.2,1.6-1.7,3.9-1.7,6.8,0,5.3,1.9,7.9,5.6,7.9C544.9,228.1,547.3,226.8,549.5,224.1Z" transform="translate(-11.28 -5.9)"/><path d="M562.6,232.6V208.2H567v4.6c2.3-3.4,5.2-5.1,8.6-5.1a6.93,6.93,0,0,1,5.1,2,7.27,7.27,0,0,1,1.9,5.4v17.5h-4.4V216.5a7.58,7.58,0,0,0-.8-3.9,2.86,2.86,0,0,0-2.6-1.2c-2.7,0-5.3,1.8-7.7,5.3v15.8h-4.5Z" transform="translate(-11.28 -5.9)"/><path d="M590.2,231.7v-4.1a18.2,18.2,0,0,0,7.5,2.2,4.9,4.9,0,0,0,3.2-1,3,3,0,0,0,1.3-2.6c0-1.5-1.2-2.8-3.5-3.8l-2.6-1.1q-5.7-2.4-5.7-6.9a6.13,6.13,0,0,1,2.3-5,9.73,9.73,0,0,1,6.2-1.8,27.6,27.6,0,0,1,5.1.6l.9.2v3.7A23.42,23.42,0,0,0,599,211a5.69,5.69,0,0,0-3.1.8,2.68,2.68,0,0,0-1.2,2.3c0,1.3,1.1,2.5,3.2,3.4l2.1.9a14.45,14.45,0,0,1,5.1,3.2,6,6,0,0,1,1.5,4.2,6.58,6.58,0,0,1-2.5,5.3,10,10,0,0,1-6.5,2.1A30.25,30.25,0,0,1,590.2,231.7Z" transform="translate(-11.28 -5.9)"/></g></svg>